<?xml version="1.0" encoding="utf-8"?>
<!-- Generator: Adobe Illustrator 25.2.3, SVG Export Plug-In . SVG Version: 6.00 Build 0)  -->
<svg version="1.1" id="レイヤー_1" xmlns="http://www.w3.org/2000/svg" xmlns:xlink="http://www.w3.org/1999/xlink" x="0px"
	 y="0px" viewBox="0 0 24 24" style="enable-background:new 0 0 24 24;" xml:space="preserve">
<style type="text/css">
	.st0{fill:none;}
	.st1{fill:#696969;}
</style>
<path class="st0" d="M0,0h24v24H0V0z"/>
<path class="st1" d="M8.7,15.9L4.8,12l3.9-3.9C9,7.7,8.9,7,8.5,6.7c-0.4-0.3-0.8-0.3-1.2,0l-4.6,4.6c-0.4,0.4-0.4,1,0,1.4l4.6,4.6
	c0.3,0.4,1,0.5,1.4,0.2s0.5-1,0.2-1.4C8.8,16,8.8,16,8.7,15.9z M15.3,15.9l3.9-3.9l-3.9-3.9C15,7.7,15.1,7,15.5,6.7
	c0.4-0.3,0.8-0.3,1.2,0l4.6,4.6c0.4,0.4,0.4,1,0,1.4l-4.6,4.6c-0.3,0.4-1,0.5-1.4,0.2s-0.5-1-0.2-1.4C15.2,16,15.2,16,15.3,15.9z"/>
</svg>
