<?xml version="1.0" encoding="utf-8"?>
<!-- Generator: Adobe Illustrator 25.2.3, SVG Export Plug-In . SVG Version: 6.00 Build 0)  -->
<svg version="1.1" id="レイヤー_1" xmlns="http://www.w3.org/2000/svg" xmlns:xlink="http://www.w3.org/1999/xlink" x="0px"
	 y="0px" viewBox="0 0 24 24" style="enable-background:new 0 0 24 24;" xml:space="preserve">
<style type="text/css">
	.st0{fill:none;}
</style>
<path class="st0" d="M0,0h24v24H0V0z"/>
<g>
	<g>
		<path d="M18.4,22H5.6c-1.2,0-2.2-1-2.2-2.2V10c0-0.6,0.3-1.2,0.7-1.7l6.4-5.8c0.8-0.8,2.2-0.7,3,0l6.4,5.8c0.5,0.4,0.7,1,0.7,1.6
			v9.8C20.6,21,19.6,22,18.4,22z M12,3.8c-0.1,0-0.2,0-0.2,0.1L5.3,9.7C5.3,9.8,5.2,9.9,5.2,10v9.8c0,0.2,0.2,0.4,0.4,0.4h12.8
			c0.2,0,0.4-0.2,0.4-0.4V10c0-0.1,0-0.2-0.1-0.3l-6.4-5.8C12.2,3.9,12.1,3.8,12,3.8z"/>
	</g>
</g>
</svg>
