<?xml version="1.0" encoding="utf-8"?>
<!-- Generator: Adobe Illustrator 26.0.2, SVG Export Plug-In . SVG Version: 6.00 Build 0)  -->
<svg version="1.1" id="レイヤー_1" xmlns="http://www.w3.org/2000/svg" xmlns:xlink="http://www.w3.org/1999/xlink" x="0px"
	 y="0px" viewBox="0 0 156.1 29.5" style="enable-background:new 0 0 156.1 29.5;" xml:space="preserve">
<style type="text/css">
	.st0{fill:none;}
	.st1{fill:#1A1311;}
	.st2{fill:#DC0021;}
	.st3{fill:#FFFFFF;}
</style>
<rect class="st0" width="156.1" height="29.5"/>
<path id="パス_57" class="st1" d="M7.4,23.1c-2.2,0.1-4.2-0.9-5.5-2.6c-1.3-1.7-1.9-3.8-1.8-5.9c-0.1-2.2,0.6-4.4,2-6.1
	c1.4-1.8,3.6-2.8,5.8-2.8c1.7-0.1,3.3,0.7,4.3,2c0.3-1.3,1.7-2.1,3-1.8c0.4,0.1,0.8,0.3,1.1,0.6c0.5,0.5,0.7,1.1,0.7,1.8v13.4
	c0,2-0.7,3.9-2.1,5.3c-1.5,1.6-3.8,2.4-7,2.5c-1.6,0-3.2-0.3-4.7-0.8c-1.7-0.6-2.7-1.4-2.9-2.5c0-0.5,0.2-1,0.6-1.4
	c0.3-0.4,0.8-0.6,1.3-0.6c0.9,0.1,1.8,0.4,2.7,0.7c1,0.4,2.1,0.6,3.3,0.7c1,0,2-0.3,2.8-0.9c0.8-0.6,1.2-1.5,1.2-2.5V21h-0.1
	c-0.5,0.6-1.1,1.1-1.8,1.5C9.4,22.9,8.4,23.1,7.4,23.1 M4.7,14.3c-0.1,1.2,0.3,2.4,1.1,3.4C6.4,18.6,7.4,19,8.5,19
	c1.1,0,2.1-0.5,2.8-1.3c0.7-0.9,1-2,1-3.2c0-1.2-0.3-2.4-1-3.4c-0.6-0.9-1.6-1.4-2.7-1.3c-1.1,0-2.2,0.5-2.8,1.5
	C5,12.1,4.7,13.2,4.7,14.3"/>
<path id="パス_58" class="st1" d="M30.3,5.8C31,5.8,31.6,6,32,6.5c0.4,0.5,0.6,1.1,0.6,1.7c0,0.4-0.1,0.8-0.4,1.1L29,10.8
	c-1.1,0.5-1.9,1.4-2,2.6v7.1c0,0.6-0.2,1.2-0.6,1.7c-1,0.9-2.5,0.9-3.4,0c-0.4-0.5-0.7-1.1-0.6-1.7V8c0-0.6,0.3-1.2,0.7-1.6
	c0.5-0.4,1.1-0.6,1.7-0.6c1.5,0,2.3,0.6,2.3,1.9H27C27.7,6.6,29,5.8,30.3,5.8"/>
<path id="パス_59" class="st1" d="M43.1,5.6c1.7-0.1,3.4,0.7,4.5,2c0.1-1.1,1.1-2,2.2-1.9c0,0,0,0,0.1,0c1.5,0,2.2,0.8,2.2,2.5v12
	c0,1.6-0.8,2.5-2.3,2.4c-1.1,0.1-2.1-0.7-2.3-1.9c-0.5,0.6-1.1,1-1.7,1.4c-0.9,0.5-1.8,0.7-2.8,0.7c-2.2,0.1-4.3-0.9-5.7-2.5
	c-1.4-1.7-2.2-3.9-2.2-6.1c0-2.2,0.7-4.4,2.2-6.1C38.9,6.6,40.9,5.6,43.1,5.6 M43.7,9.8c-1,0-2,0.4-2.7,1.2c-0.8,1-1.2,2.2-1.1,3.4
	c0,1.2,0.3,2.3,1,3.3c0.6,0.9,1.7,1.4,2.7,1.3c1.1,0,2.2-0.5,2.8-1.5c0.6-0.9,0.9-2,0.9-3.1c0-1.1-0.3-2.3-1-3.2
	C45.9,10.3,44.8,9.7,43.7,9.8"/>
<path id="パス_60" class="st1" d="M59.6,5.8c1.1-0.1,2,0.6,2.2,1.6c0.9-1.2,2.5-1.8,4.6-1.8c1.7-0.1,3.4,0.5,4.7,1.6
	c1.2,1.1,1.8,2.6,1.8,4.2v9c0,0.6-0.2,1.2-0.6,1.7c-0.5,0.4-1.1,0.7-1.7,0.7c-1.2,0.1-2.3-0.8-2.4-2c0-0.2,0-0.3,0-0.5v-8
	c0-0.8-0.3-1.6-0.8-2.2c-0.6-0.6-1.4-0.9-2.3-0.8c-0.9-0.1-1.8,0.3-2.4,1c-0.4,0.6-0.7,1.3-0.7,2v8.1c0,0.6-0.2,1.2-0.6,1.6
	c-0.9,1-2.5,1-3.5,0.1c0,0,0,0-0.1-0.1c-0.4-0.5-0.6-1.1-0.6-1.7V8.3c0-0.6,0.2-1.3,0.6-1.7C58.3,6.1,58.9,5.8,59.6,5.8"/>
<path id="パス_61" class="st1" d="M111.4,5.6c1.7-0.1,3.4,0.7,4.5,2c0.1-1.1,1.1-2,2.2-1.9c0,0,0,0,0.1,0c1.5,0,2.2,0.8,2.2,2.5
	v12c0,1.6-0.8,2.5-2.3,2.4c-1.1,0.1-2.1-0.7-2.3-1.9c-0.5,0.6-1.1,1-1.7,1.4c-0.9,0.5-1.8,0.7-2.8,0.7c-2.2,0.1-4.3-0.9-5.7-2.5
	c-1.4-1.7-2.2-3.9-2.2-6.1c0-2.2,0.7-4.4,2.2-6.1C107.1,6.6,109.2,5.6,111.4,5.6 M112,9.8c-1,0-2,0.4-2.7,1.2
	c-0.8,1-1.2,2.2-1.1,3.4c0,1.2,0.3,2.3,1,3.3c0.6,0.9,1.7,1.4,2.7,1.3c1.1,0,2.2-0.5,2.8-1.5c0.6-0.9,0.9-2,0.9-3.1
	c0-1.1-0.3-2.3-1-3.2C114.1,10.3,113.1,9.7,112,9.8"/>
<path id="パス_62" class="st1" d="M130.3,0.8c0.6,0,1.3,0.2,1.7,0.7c0.4,0.5,0.7,1.1,0.7,1.7V6h1.4c1.5,0,2.2,0.7,2.2,2
	c0,1.3-0.7,2-2.2,2h-1.4v10.5c0,0.6-0.2,1.2-0.6,1.7c-0.4,0.5-1.1,0.8-1.7,0.7c-0.7,0-1.3-0.2-1.7-0.7c-0.4-0.5-0.7-1.1-0.6-1.7V10
	h-1.1c-1.4,0-2-0.7-2-2c0-0.5,0.2-1.1,0.6-1.4c0.4-0.4,0.9-0.6,1.5-0.6h1.1V3.2c0-1.3,0.9-2.3,2.2-2.4
	C130.2,0.8,130.3,0.8,130.3,0.8"/>
<path id="パス_63" class="st1" d="M147.1,5.6c1.7-0.1,3.4,0.7,4.5,2c0.1-1.1,1.1-2,2.2-1.9c0,0,0,0,0.1,0c1.5,0,2.2,0.8,2.2,2.5
	v12c0,1.6-0.8,2.5-2.3,2.4c-1.1,0.1-2.1-0.7-2.3-1.9c-0.5,0.6-1.1,1-1.7,1.4c-0.9,0.5-1.8,0.7-2.8,0.7c-2.2,0.1-4.3-0.9-5.7-2.5
	c-1.4-1.7-2.2-3.9-2.2-6.1c0-2.2,0.7-4.4,2.2-6.1C142.8,6.6,144.9,5.6,147.1,5.6 M147.7,9.8c-1,0-2,0.4-2.7,1.2
	c-0.8,1-1.2,2.2-1.1,3.4c0,1.2,0.3,2.3,1,3.3c0.6,0.9,1.7,1.4,2.7,1.3c1.1,0,2.2-0.5,2.8-1.5c0.6-0.9,0.9-2,0.9-3.1
	c0-1.1-0.3-2.3-1-3.2C149.8,10.3,148.8,9.7,147.7,9.8"/>
<path id="パス_64" class="st1" d="M95.3,3.2C93.2,1,90.2-0.1,87.2,0h-5.6c-0.7,0-1.3,0.2-1.8,0.7C79.2,1.2,79,1.8,79,2.5v18
	c0,1.7,0.9,2.6,2.8,2.6h0.8V7.2c0-0.2,0.2-0.4,0.4-0.4H91c1.1,0,1.9,0.9,1.9,1.9c0,0,0,0,0,0v11.8c0,0.4,0.3,0.6,0.6,0.6
	c0.1,0,0.3,0,0.4-0.1c0.4-0.3,0.8-0.6,1.1-0.9c2.1-1.9,3.2-4.7,3.2-8.4C98.5,8.7,97.4,5.6,95.3,3.2"/>
<path id="パス_65" class="st2" d="M82.6,23.1V7.2c0-0.2,0.1-0.3,0.3-0.3c0,0,0.1,0,0.1,0l6.5,2.3c0.5,0.2,0.9,0.7,0.9,1.2v13.5
	c0,0.7-0.6,1.3-1.3,1.3c-0.1,0-0.3,0-0.4-0.1L82.6,23.1z"/>
<path id="パス_66" class="st3" d="M89.5,16.6c0,0.4-0.4,0.8-0.8,0.8s-0.8-0.4-0.8-0.8c0-0.4,0.4-0.8,0.8-0.8l0,0
	C89.2,15.8,89.5,16.1,89.5,16.6"/>
</svg>
