<?xml version="1.0" encoding="utf-8"?>
<!-- Generator: Adobe Illustrator 25.2.3, SVG Export Plug-In . SVG Version: 6.00 Build 0)  -->
<svg version="1.1" id="レイヤー_1" xmlns="http://www.w3.org/2000/svg" xmlns:xlink="http://www.w3.org/1999/xlink" x="0px"
	 y="0px" viewBox="0 0 24 24" style="enable-background:new 0 0 24 24;" xml:space="preserve">
<style type="text/css">
	.st0{fill:none;}
</style>
<path class="st0" d="M0,0h24v24H0V0z"/>
<path d="M17.7,15.5c0.3,0.3,0.8,0.3,1.1,0l2.9-2.9c0.3-0.3,0.3-0.8,0-1.1l-2.9-2.9c-0.3-0.3-0.8-0.3-1.1,0c-0.3,0.3-0.3,0.8,0,1.1
	l1.5,1.5h-7c-0.4,0-0.8,0.4-0.8,0.8s0.4,0.8,0.8,0.8h7l-1.5,1.5C17.4,14.6,17.4,15.2,17.7,15.5z M3.6,19.3h11.3
	c0.9,0,1.6-0.7,1.6-1.6v-2.4c0-0.4-0.4-0.8-0.8-0.8s-0.8,0.4-0.8,0.8v1.6c0,0.4-0.4,0.8-0.8,0.8H4.4c-0.4,0-0.8-0.4-0.8-0.8V7.2
	c0-0.4,0.4-0.8,0.8-0.8h9.7c0.4,0,0.8,0.4,0.8,0.8v1.6c0,0.4,0.4,0.8,0.8,0.8s0.8-0.4,0.8-0.8V6.4c0-0.9-0.7-1.6-1.6-1.6H3.6
	C2.7,4.7,2,5.5,2,6.4v11.3C2,18.5,2.7,19.3,3.6,19.3z"/>
</svg>
