<svg id="レイヤー_1" data-name="レイヤー 1" xmlns="http://www.w3.org/2000/svg" viewBox="0 0 24 24"><defs><style>.cls-1{fill:none;}.cls-2{fill:#fff;}</style></defs><rect class="cls-1" width="24" height="24"/><path class="cls-2" d="M17,10.23l-5.66,5.66a1,1,0,0,1-1.41,0L7.05,13.06a1,1,0,0,1,0-1.41h0a1,1,0,0,1,1.41,0l2.12,2.12,4.95-4.95a1,1,0,0,1,1.41,0h0A1,1,0,0,1,17,10.23ZM4,12A8,8,0,0,1,6.62,6.12L8.15,7.65A.5.5,0,0,0,9,7.29V3a.5.5,0,0,0-.5-.5H4.21a.49.49,0,0,0-.35.85L5.2,4.7A10,10,0,0,0,9.76,21.75a1,1,0,0,0,1.24-1h0a1,1,0,0,0-.79-1A8,8,0,0,1,4,12Zm18,0a10,10,0,0,0-7.76-9.75,1,1,0,0,0-1.24,1h0a1,1,0,0,0,.79,1,8,8,0,0,1,3.59,13.67l-1.53-1.53a.5.5,0,0,0-.85.36V21a.5.5,0,0,0,.5.5h4.29a.49.49,0,0,0,.35-.85L18.8,19.3A9.93,9.93,0,0,0,22,12Z" transform="translate(0 0)"/></svg>