<?xml version="1.0" encoding="utf-8"?>
<!-- Generator: Adobe Illustrator 25.2.3, SVG Export Plug-In . SVG Version: 6.00 Build 0)  -->
<svg version="1.1" id="レイヤー_1" xmlns="http://www.w3.org/2000/svg" xmlns:xlink="http://www.w3.org/1999/xlink" x="0px"
	 y="0px" viewBox="0 0 24 24" style="enable-background:new 0 0 24 24;" xml:space="preserve">
<style type="text/css">
	.st0{fill:none;}
</style>
<path class="st0" d="M0,0h24v24H0V0z"/>
<g>
	<path d="M12,2C6.5,2,2,6.5,2,12s4.5,10,10,10s10-4.5,10-10S17.5,2,12,2z M12,20c-4.4,0-8-3.6-8-8s3.6-8,8-8s8,3.6,8,8
		S16.4,20,12,20z"/>
	<g>
		<g>
			<path d="M11.3,15H8.6v-0.8h2.7v-1.1H8.6v-0.8h2.4L8.2,6.8h1.5L11,9.8c0.3,0.7,0.7,1.5,1,2.3h0.1c0.4-0.8,0.7-1.5,1-2.3l1.3-2.9
				h1.4L13,12.3h2.4v0.8h-2.8v1.1h2.8V15h-2.8v2.7h-1.4V15z"/>
			<path d="M12.7,18.1h-1.4c-0.2,0-0.4-0.2-0.4-0.4v-2.2H8.6c-0.2,0-0.4-0.2-0.4-0.4v-0.8c0-0.2,0.2-0.4,0.4-0.4h2.3v-0.2H8.6
				c-0.2,0-0.4-0.2-0.4-0.4v-0.8c0-0.2,0.2-0.4,0.4-0.4h1.7L7.8,7c-0.1-0.1-0.1-0.3,0-0.4C7.9,6.5,8,6.4,8.2,6.4h1.5
				c0.2,0,0.3,0.1,0.4,0.3l1.8,3.9c0.1,0.2,0.1,0.3,0.2,0.5l0-0.1c0.2-0.5,0.4-0.9,0.6-1.4L14,6.7c0.1-0.2,0.2-0.3,0.4-0.3h1.4
				c0.2,0,0.3,0.1,0.4,0.2c0.1,0.1,0.1,0.3,0,0.4l-2.5,4.8h1.7c0.2,0,0.4,0.2,0.4,0.4v0.8c0,0.2-0.2,0.4-0.4,0.4h-2.3v0.2h2.3
				c0.2,0,0.4,0.2,0.4,0.4V15c0,0.2-0.2,0.4-0.4,0.4h-2.3v2.2C13.1,17.9,12.9,18.1,12.7,18.1z M11.7,17.2h0.5V15
				c0-0.2,0.1-0.3,0.3-0.4c-0.1-0.1-0.3-0.2-0.3-0.4v-1.1c0-0.2,0.2-0.4,0.4-0.4h0.1c0,0-0.1-0.1-0.1-0.1c-0.1-0.1-0.1-0.3,0-0.4
				l2.5-4.8h-0.4l-1.2,2.7c-0.2,0.5-0.4,0.9-0.6,1.4l-0.4,0.9c-0.1,0.2-0.2,0.3-0.4,0.3s-0.4-0.1-0.5-0.3c-0.2-0.5-0.4-0.9-0.6-1.3
				L9.3,7.3H8.9l2.4,4.8c0.1,0.1,0.1,0.3,0,0.4c0,0-0.1,0.1-0.1,0.1h0.1c0.2,0,0.4,0.2,0.4,0.4v1.1c0,0.2-0.1,0.3-0.3,0.4
				c0.1,0.1,0.3,0.2,0.3,0.4V17.2z"/>
		</g>
	</g>
</g>
</svg>
